# xmcd CD database file
#
# Track frame offsets:
#	150
#	14762
#	26287
#	34627
#	48647
#	62825
#	78782
#	93990
#	107677
#	122497
#	134340
#	147767
#
# Disc length: 2163 seconds
#
# Revision: 0
# Processed by: cddbd v1.5.2PL0 Copyright (c) Steve Scherf et al.
# Submitted via: CDex 1.50
#
DISCID=9708710c
DTITLE=Anny et Jean-Marc Versini - Playing Ragtime Guitar
DYEAR=1997
DGENRE=Jazz
TTITLE0=Mississipi Rag
TTITLE1=Harlem Rag
TTITLE2=Bowery Buck
TTITLE3=Maple Leaf Rag
TTITLE4=Swipesy Cake Walk
TTITLE5=Sunflower Slow Drag
TTITLE6=The Entertainer
TTITLE7=Frog Legs Rag
TTITLE8=Heliotrope Bouquet
TTITLE9=Pleasant Moments
TTITLE10=Stoptime
TTITLE11=American Beauty
EXTD=YEAR: 1997
EXTT0=
EXTT1=
EXTT2=
EXTT3=
EXTT4=
EXTT5=
EXTT6=
EXTT7=
EXTT8=
EXTT9=
EXTT10=
EXTT11=
PLAYORDER=
